<?xml version="1.0" standalone="no"?>
<!DOCTYPE svg PUBLIC "-//W3C//DTD SVG 20010904//EN"
 "http://www.w3.org/TR/2001/REC-SVG-20010904/DTD/svg10.dtd">
<svg version="1.0" xmlns="http://www.w3.org/2000/svg"
 width="512.000000pt" height="512.000000pt" viewBox="0 0 512.000000 512.000000"
 preserveAspectRatio="xMidYMid meet">

<g transform="translate(0.000000,512.000000) scale(0.100000,-0.100000)"
fill="#000000" stroke="none">
<path d="M213 4431 c-77 -26 -136 -80 -175 -159 l-33 -67 -3 -1639 c-2 -1477
-1 -1646 14 -1695 31 -108 106 -183 214 -215 40 -12 97 -16 232 -16 l178 0 2
1446 3 1446 952 -681 c523 -375 957 -681 963 -681 10 0 319 220 1453 1032 251
180 460 328 462 328 3 0 5 -651 5 -1446 l0 -1445 203 3 c191 3 205 4 252 28
64 31 124 91 155 155 l25 50 0 1670 0 1670 -21 46 c-31 67 -87 124 -156 159
-57 28 -68 30 -173 30 l-113 0 -1046 -761 -1046 -761 -1047 761 -1047 761
-101 0 c-69 -1 -116 -6 -152 -19z"/>
</g>
</svg>
